<?xml version="1.0" encoding="utf-8"?>
<!-- Generator: Adobe Illustrator 24.0.2, SVG Export Plug-In . SVG Version: 6.00 Build 0)  -->
<svg version="1.1" id="Layer_1" xmlns="http://www.w3.org/2000/svg" xmlns:xlink="http://www.w3.org/1999/xlink" x="0px" y="0px"
	 viewBox="0 0 512 512" style="enable-background:new 0 0 512 512;" xml:space="preserve">
<g>
	<g>
		<path d="M391.6,182.4h-54.9c0.7-0.6,1.3-1.2,1.9-1.8c7-7,10.9-16.3,10.9-26.2c0-9.9-3.9-19.2-10.9-26.2c-7-7-16.3-10.9-26.2-10.9
			s-19.1,3.8-26.2,10.8c-8.1,7.6-22.6,32.2-30.3,47.8c-7.7-15.6-22.1-40.2-30.3-47.8c-7-7-16.3-10.8-26.2-10.8
			c-9.9,0-19.2,3.9-26.2,10.9c-7,7-10.9,16.3-10.9,26.2s3.9,19.2,10.9,26.2c0.6,0.6,1.2,1.2,1.9,1.8h-54.9c-2.5,0-4.5,2.1-4.5,4.5
			v51.2c0,2.5,2.1,4.5,4.5,4.5h14.1v147.4c0,2.5,2.1,4.5,4.5,4.5H373c2.5,0,4.5-2.1,4.5-4.5V242.5h14.1c2.5,0,4.5-2.1,4.5-4.5v-51.2
			C396.1,184.3,394.1,182.4,391.6,182.4z M338,165.6c-1.4,3.2-3.4,6-5.9,8.5c-5.3,5.3-12.3,8.2-19.8,8.2l0,0h-27
			c5.4-10.9,15.5-27.9,20.2-32.3c0.1-0.1,0.1-0.1,0.1-0.1c7.4-7.4,19.4-7.4,26.8,0C336.8,154.1,338.7,159.8,338,165.6z M173.9,165.6
			c-0.7-5.8,1.2-11.5,5.4-15.7c7.4-7.4,19.4-7.4,26.8,0c0.1,0.1,0.1,0.1,0.1,0.1c4.7,4.3,14.8,21.4,20.2,32.3h-27l0,0
			c-7.5,0-14.5-2.9-19.8-8.2C177.2,171.7,175.2,168.7,173.9,165.6z M143.4,385.4V242.5H229v142.9H143.4z M229,233.5H124.8v-42.1H229
			V233.5L229,233.5z M212.5,143.4c-10.5-10.4-27.2-10.9-38.2-1.2c1.3-2.8,3.2-5.4,5.4-7.6c5.3-5.3,12.3-8.2,19.8-8.2
			c7.5,0,14.5,2.9,19.8,8.2c0.1,0.1,0.1,0.1,0.1,0.1c7.5,7,22.7,33.1,29.5,47.7h-12.5C231.7,171.7,219.2,149.7,212.5,143.4z
			 M273.8,385.4h-35.7V242.5h35.7V385.4z M273.8,233.5h-35.7v-42.1h35.7V233.5z M262.9,182.4c7-14.5,22.1-40.7,29.5-47.7
			c0.1-0.1,0.1-0.1,0.1-0.1c5.3-5.3,12.3-8.2,19.8-8.2s14.5,2.9,19.8,8.2c2.3,2.3,4.1,4.8,5.4,7.6c-11-9.6-27.7-9.2-38.2,1.2
			c-6.7,6.3-19.2,28.2-24,38.9L262.9,182.4L262.9,182.4z M282.9,385.4V242.5h85.6v142.9H282.9z M282.9,233.5v-42.1H387v42.1H282.9
			L282.9,233.5z"/>
	</g>
</g>
</svg>
