<?xml version="1.0" encoding="utf-8"?>
<!-- Generator: Adobe Illustrator 24.0.2, SVG Export Plug-In . SVG Version: 6.00 Build 0)  -->
<svg version="1.1" id="Capa_1" xmlns="http://www.w3.org/2000/svg" xmlns:xlink="http://www.w3.org/1999/xlink" x="0px" y="0px"
	 viewBox="0 0 381.2 381.2" style="enable-background:new 0 0 381.2 381.2;" xml:space="preserve">
<style type="text/css">
	.st0{fill:#010002;}
</style>
<g>
	<g>
		<path class="st0" d="M191.4,286.9c-2.6,0-5.1-1-7.1-2.8c-0.1-0.1-16.5-16-82.8-82.3l-0.4-0.4c-0.6-0.6-1-1.1-1.4-1.4
			c-10.8-11.7-16.8-26.9-16.8-42.7c0-34.6,28.2-62.9,62.9-62.9c17,0,33.2,6.9,44.9,18.9c11.8-12.1,27.9-18.9,44.9-18.9
			c34.6,0,62.9,28.2,62.9,62.9c0,17.4-6.9,33.6-19.6,45.5c-0.2,0.2-0.4,0.4-0.5,0.5c-66.6,66.8-79.3,80.2-79.4,80.4
			c-1.9,2-4.5,3.2-7.1,3.2H191.4z M145.8,101c-31,0-56.1,25.2-56.1,56.1c0,14.1,5.3,27.7,15.2,38.2c0.4,0.4,0.6,0.6,1.1,1.2l0.5,0.5
			c66.2,66.2,82.6,82.1,82.7,82.2c0.6,0.6,1.4,0.9,2.3,0.9h0.1c0.9,0,1.7-0.4,2.4-1.1c0.1-0.1,12.8-13.8,79.7-80.6l0.5-0.5
			c11.4-10.8,17.6-25.2,17.6-40.8c0-31-25.2-56.1-56.1-56.1c-16.3,0-31.8,7.1-42.4,19.3l-2.5,3l-2.5-3
			C177.5,108,162.1,101,145.8,101z"/>
	</g>
</g>
</svg>
