<?xml version="1.0" encoding="utf-8"?>
<!-- Generator: Adobe Illustrator 24.0.2, SVG Export Plug-In . SVG Version: 6.00 Build 0)  -->
<svg version="1.1" id="Layer_1" xmlns="http://www.w3.org/2000/svg" xmlns:xlink="http://www.w3.org/1999/xlink" x="0px" y="0px"
	 viewBox="0 0 1190 1280" style="enable-background:new 0 0 1190 1280;" xml:space="preserve">
<g transform="translate(0.000000,1280.000000) scale(0.100000,-0.100000)">
	<path d="M5753.3,9359.1c-692.6-50.3-1216-358-1501-882.9c-50.5-92.6-98-198.4-98-217.3c0-4.5-2.5-8.6-5.1-8.6
		c-2.6,0-5.1-4.5-5.7-9.7c-0.6-10.9-3.8-21.7-10.1-36c-10.7-26.9-49.3-164.1-57.5-205.9c-1.9-10.9-5.1-26.4-7-33.7
		c-1.3-8-4.4-26.9-6.3-42.3c-1.9-16-5.1-30.3-6.3-32c-5.1-7.4-15.2-108.1-17.7-179c-0.6-15.4-3.2-27.5-6.3-27.5
		c-2.5,0-1.9-5.1,1.9-11.5c5.1-8,5.1-11.5,0-11.5c-4.4,0-5.1-3.4-0.6-10.9c3.8-5.7,5.1-12,3.2-13.8s-3.2-224.1-2.5-494.5l0.6-491.8
		l-16.5-11.5c-8.9-6.3-43.5-17.1-77.7-24.6c-100.5-20.6-168.2-42.3-230-73.2c-68.9-34.3-94.2-52-151.7-104.7
		c-130.2-118.9-211.1-320.2-223.1-553.5c-3.2-56.7-2.5-1727.9,0.6-1786.8c5.1-100,17.7-182.4,29.1-196.1c4.4-4.5,4.4-6.9-0.6-6.9
		c-4.4,0-5.7-2.9-2.5-7.4c2.5-3.4,5.1-9.2,5.7-12.6c0.6-2.9,7-19.4,14.6-35.4c7-16.5,10.7-30.3,8.2-30.3c-2.6,0-1.3-2.3,1.9-4.5
		c6.3-4,23.5-34.9,23.5-41.1c0-1.8,3.8-6.9,8.9-12c5.1-5.1,7.6-10.3,5.7-12c-1.9-1.8,3.8-9.7,12.6-18.3c8.2-8,15.9-16.5,15.9-17.8
		c0-8,53.1-66.9,77.1-85.8c15.2-12,21.5-18.3,14.6-13.8c-11.3,7.4-12,7.4-3.8-1.8c4.4-5.7,10.7-10.3,13.8-10.3
		c3.2,0,10.7-4.5,17.1-9.7c24.6-21.2,42.4-32.5,76.5-49.2c110.6-53.8,168.8-69.2,329.3-87.6c70.2-7.4,291.4-8.6,1972.5-8
		c1963,0,1973.7,0,2094.4,22.3c139.7,25.8,250.9,76.5,335.6,154.4c101.8,92.6,150.4,195.5,170,358c7.6,61.2,9.5,232.7,9.5,969.8
		c0,492.9-1.3,899.4-2.5,903.4c-1.9,4.5-4.4,36-6.3,69.8c-2.5,34.3-5.1,64-6.3,66.3c-1.9,2.3-4.4,15.4-6.3,29.1
		c-10.7,81.8-48,195.5-86.6,264.8c-18.9,32.5-67.6,100.7-87.2,120.7c-39.2,39.5-100.5,91.4-109.9,93.7c-8.2,1.8-23.5,17.1-24,25.1
		c0,4-2.5,2.3-5.1-4c-5.1-10.9-5.1-10.9-9.5,1.8c-3.2,8-8.2,12-13.2,10.3c-5.1-1.8-12,1.1-15.9,5.7c-4.4,4.5-12,8-16.5,8
		c-5.1,0-8.9,2.9-8.9,5.7c0,3.4-4.4,5.7-9.5,5.7s-9.5,2.9-9.5,5.7c0,3.4-5.7,5.7-12.6,5.7c-7,0-12.6,2.9-12.6,6.3
		c0,2.9-2.5,4-6.3,2.3c-3.2-1.8-6.3-0.6-6.3,2.9c0,3.5-2.5,4.5-6.3,2.9c-3.2-1.8-6.3-1.1-6.3,2.3c0,2.9-5.1,4.5-10.7,3.4
		c-6.3-0.6-18.9,2.3-28.4,6.3c-9.5,4.5-19.6,7.4-22.1,7.4c-2.5-0.6-10.1,0.6-15.9,2.3c-29.1,10.3-34.1,11.5-43.5,13.1
		c-5.7,1.1-17.1,4.5-25.3,7.4c-8.2,2.9-17.1,4.5-18.9,4c-2.5,0-10.7,4.5-18.9,10.9c-8.9,7.4-12.6,8-9.5,2.9
		c2.5-4.5-2.5-1.1-11.3,7.4l-16.5,16v484.3c-0.6,266.5-1.9,504.9-3.2,530c-4.4,66.9-8.9,117.8-12,137.2
		c-1.9,13.8-16.5,96.6-25.3,145.8c-13.2,71.5-18.9,97.2-22.7,97.2c-2.5,0-3.8,5.7-3.2,13.1c0.6,6.9-0.6,15.4-3.2,18.3
		c-3.2,3.4-7,13.8-8.2,22.9c-5.7,26.4-8.9,38.9-15.9,54.9c-3.8,8.6-5.1,16.5-3.8,18.3c1.9,1.8-1.3,12.6-6.3,24
		c-5.7,12-10.1,26.9-10.1,33.7c0,9.2-1.3,10.3-5.7,4c-4.4-5.7-7-0.6-10.1,18.3c-2.5,14.9-7.6,26.9-10.7,26.9
		c-3.8,0-5.1,5.1-3.2,11.5s0.6,11.5-2.5,11.5c-3.2,0-5.7,4-5.7,8.6c0,4.5-2.5,8.6-6.3,8.6c-3.2,0-3.8,4-1.9,9.7
		c3.2,6.3,1.9,8-3.8,4.5c-6.3-3.4-7-1.1-3.8,8.6c3.2,9.7,2.5,12-3.2,8.6c-5.1-2.9-7-2.3-3.8,1.8c4.4,6.3-17.7,53.2-60.7,129.8
		c-13.8,25.1-34.8,61.2-44.9,80.1c-10.7,18.9-21.5,35.4-24,37.2c-1.9,1.8-10.1,14.3-18.3,28c-7.6,13.8-16.5,28-19.6,31.4
		c-18.9,20.6-53.1,64.6-66.4,85.2c-8.2,13.1-15.2,21.7-15.2,19.4c0-2.3-3.8-1.1-8.9,2.9c-5.1,4-7.6,9.2-5.7,11.5
		c1.3,2.3-4.4,10.9-13.2,18.9c-9.5,8-16.5,17.8-16.5,21.2c0,3.4-1.9,4.5-4.4,2.9c-1.9-2.3-8.2,1.1-12.6,7.4
		c-5.1,6.3-12,10.3-15.2,8.6c-3.2-2.3-5.7,1.1-5.7,6.9c0,6.3-12.6,22.3-28.4,36c-15.2,13.8-26.5,26.9-24.6,29.8
		c1.9,2.3-2.5,4.5-9.5,4.5c-7,0-13.8,5.1-16.5,11.5c-1.9,6.3-8.2,11.5-13.2,11.5c-5.1,0-8.9,4-8.9,8.6c0,4.5-4.4,8.6-10.1,8.6
		c-5.1,0-7.6,2.9-5.7,5.7c1.9,3.4-0.6,5.7-5.7,5.7c-5.7,0-10.1,2.9-10.1,6.3c0,2.9-1.9,4.5-4.4,3.4c-3.2-1.8-8.9,0.6-13.2,5.1
		c-4.3,4.5-5.7,8-3.2,8c2.5,0.6-2.5,4.5-12,9.2c-10.1,4.5-17.7,10.9-17.7,13.8c0,3.4-4.4,5.7-9.5,5.7c-5.1,0-9.5,2.9-9.5,5.7
		c0,3.4-3.2,5.7-6.3,5.7c-3.8,0-13.2,6.3-21.5,14.3c-8.2,8-16.5,14.3-18.9,14.3c-4.4,0-42.4,23.5-48,29.1c-1.9,1.8-12,7.4-23.5,12.6
		c-10.7,5.1-23.5,12.6-28.4,16.5c-11.3,9.7-37.3,24-90.4,48.6c-24,10.9-46.2,22.9-48,25.8c-1.9,2.9-5.7,5.1-7.6,5.1
		c-2.5,0-16.5,4.5-31,10.3c-236.3,90.3-420.2,130.9-677.5,149.2C6073,9366.5,5849.4,9366,5753.3,9359.1z M6053.5,8664.9
		c65.1-5.7,88.5-8.6,151.7-17.8c56.9-8.6,178.8-38.3,198.4-48.6c10.7-5.1,46.8-17.8,49.9-17.1c6.3,2.3,172.5-84.7,184.5-97.2
		c1.9-1.8,14.6-10.3,27.8-20c13.8-9.2,31-21.7,37.9-28c7.6-6.3,22.1-17.8,32.2-24.6c10.7-7.4,14.6-12,9.5-9.7s-0.6-3.4,10.1-12.6
		c17.1-13.8,61.9-61.2,99.1-105.2c6.3-7.4,17.1-22.9,24-33.7c7-10.9,17.7-27.5,24.6-37.2c12-17.1,46.2-72,47.4-77.2
		c0.6-1.8,6.3-13.1,12.6-25.8c6.3-12.6,11.3-24.6,10.7-26.9c-0.6-2.9,1.3-4.5,3.8-4.5c3.2,0,5.7-3.4,6.3-6.9
		c1.3-16.5,18.3-50.3,23.5-46.3c2.5,2.9,3.2,1.8,0.6-2.3c-2.5-4,4.4-28.6,14.6-55.5c10.1-26.4,17.1-49.7,15.2-51.4
		c-1.9-1.8,0-6.9,4.4-12c4.4-5.1,6.3-10.3,4.4-12.6c-2.5-1.8-1.3-6.9,2.5-11.5c5.7-5.7,5.1-7.4-1.3-7.4c-5.7-0.6-5.1-2.9,3.2-8.6
		c7-4.5,9.5-8.6,5.1-8.6c-5.1,0-5.7-4-0.6-15.4c3.8-9.2,7.6-21.2,8.9-27.5c5.1-28,17.1-116.1,18.3-131.6c0-9.2,3.2-18.9,7-21.2
		c4.4-2.9,3.8-4.5,0-4.5c-3.8,0-7-5.1-7-11.5s2.5-11.5,5.7-11.5s2.5-3.4-1.3-8c-5.7-6.3-5.7-8.6,0.6-11.5s6.3-4,0.6-6.9
		c-12-4.5-10.1-13.8,3.2-13.8c6.3,0,8.2-1.8,3.8-4.5c-10.1-5.7-11.3-126.9-1.9-126.9c5.1,0,5.7-2.3,0-7.4
		c-5.1-5.7-7.6-123-8.2-404.2l-1.9-396.8l-21.3-11.5c-21.5-11.5-35.4-11.5-1085.2-13.8c-768.5-1.8-1063.6-0.6-1066.8,4
		c-2.5,3.4-13.8,6.3-25.3,6.3c-43.5,0-41-33.7-41.6,517.5c-0.6,273.9-0.6,498.6,0,500.3c0.6,1.8,1.9,18.3,3.2,37.2
		c2.5,37.2,6.3,66.9,16.5,120.1c3.8,18.9,7.6,40.6,8.2,48.6c1.3,8,3.8,18.3,6.3,23.5c2.5,5.1,5.1,15.4,6.3,23.5
		c0.6,7.4,3.2,16,5.1,18.9c1.9,3.4,5.7,16,8.2,28.6c5.1,24,29.7,90.9,44.9,121.2c5.1,9.7,8.9,19.4,8.9,22.3
		c0,18.9,118.8,203.6,156.1,242.4c22.7,24,124.5,114.4,151,134.3c69.5,53.2,251.6,137.2,320.4,148.1c4.4,0.6,17.7,4,29.7,8
		c36.7,10.9,172.5,29.8,241.4,33.2c36,2.3,65.7,4,66.4,4.5C5918.2,8671.8,6014.3,8668.4,6053.5,8664.9z"/>
</g>
</svg>
