<svg width="55" height="23" viewBox="0 0 55 23" fill="none" xmlns="http://www.w3.org/2000/svg">
<mask id="mask0_1201_326" style="mask-type:alpha" maskUnits="userSpaceOnUse" x="0" y="0" width="54" height="23">
<path fill-rule="evenodd" clip-rule="evenodd" d="M0 0.733032V22.83H53.965V0.733032H0Z" fill="white"/>
</mask>
<g mask="url(#mask0_1201_326)">
<path fill-rule="evenodd" clip-rule="evenodd" d="M51.404 10.16H47.3534L46.4725 8.76122V10.16H40.6416L40.1241 8.80683H39.1614L38.6528 10.16H35.1745C34.8572 10.16 34.5232 10.134 34.1877 10.0732C33.9822 10.0359 33.7758 9.98587 33.5727 9.91966C33.4084 9.86669 33.2461 9.80392 33.0872 9.73035C32.9288 9.65629 32.7728 9.57144 32.6227 9.47433V9.85836V10.16H26.8104L25.7569 8.78868V10.16H4.72295L4.20503 8.80683H3.24228L2.73368 10.16H-9.15527e-05V9.32082V4.76503L1.7258 0.732544H5.58565L6.43952 2.65903V0.732544H11.1709L11.7344 2.37653L12.2881 0.732544H32.6227V1.1455V1.46969C32.7998 1.35149 32.9866 1.24801 33.1818 1.15825C33.3481 1.08224 33.5207 1.01651 33.6983 0.961094C33.9244 0.890469 34.1588 0.836519 34.3996 0.798755C34.6826 0.754614 34.9749 0.732544 35.2741 0.732544H41.5048L42.3493 2.63892V0.732544H46.1184L47.0807 2.24019V0.732544H51.404V10.16ZM53.9647 13.4038V22.2496C53.7523 22.3805 53.5208 22.4924 53.2736 22.5821C52.8342 22.7415 52.3442 22.8303 51.8214 22.8303H33.6576L32.6041 21.4595V22.8303H28.4176V20.4384C27.8168 20.6615 27.1385 20.7964 26.392 20.7964H26.4553V22.8303H20.4522L19.5895 21.6042L18.7538 22.8303H9.16348V13.4038H18.7905L19.6346 14.6118L20.4885 13.4038H53.4924H53.9647Z" fill="#323642"/>
</g>
<path fill-rule="evenodd" clip-rule="evenodd" d="M15.73 14.9384V16.2282H12.1703V17.4632H15.6486V18.7349H12.1703V20.015H15.73V21.2961H10.644V14.9384H15.73ZM21.0249 21.2961H22.9322L20.3799 18.09L22.9141 14.9384H21.0617L19.4991 16.9546L17.9463 14.9384H16.039L18.582 18.117L16.0478 21.2961H17.9007L19.4628 19.2524L21.0249 21.2961ZM23.2682 21.2961V14.9384H26.7646C28.1183 14.9384 28.9623 15.8015 28.9623 17.0635C28.9623 18.2896 28.1001 19.1974 26.7102 19.1974H24.794V21.2961H23.2682ZM32.0326 19.0071H31.315V21.2961H29.7892V14.9384H33.2405C34.5937 14.9384 35.4382 15.7648 35.4382 16.9546C35.4382 17.9718 34.7938 18.7526 33.7128 18.9527L35.8286 21.2961H33.9306L32.0326 19.0071ZM41.6233 14.9384V16.2282H38.0631V17.4632H41.5414V18.7349H38.0631V20.015H41.6233V21.2961H36.5373V14.9384H41.6233ZM45.8098 20.0243H42.5498V21.2961H45.7642C47.136 21.2961 47.9536 20.4603 47.9536 19.2705C47.9536 18.1351 47.2179 17.4725 45.9824 17.4725H44.5111C44.1477 17.4725 43.8936 17.2361 43.8936 16.8639C43.8936 16.4823 44.1477 16.2282 44.5111 16.2282H47.2718L47.8354 14.9384H44.5562C43.1849 14.9384 42.3673 15.7741 42.3673 16.9183C42.3673 18.09 43.1398 18.7619 44.3478 18.7619H45.8098C46.1727 18.7619 46.4361 18.9978 46.4361 19.3799C46.4361 19.7698 46.1727 20.0243 45.8098 20.0243ZM51.8585 20.0243H48.598V21.2961H51.8124C53.1847 21.2961 54.0018 20.4603 54.0018 19.2705C54.0018 18.1351 53.2661 17.4725 52.0312 17.4725H50.5598C50.1959 17.4725 49.9423 17.2361 49.9423 16.8639C49.9423 16.4823 50.1959 16.2282 50.5598 16.2282H53.3201L53.8841 14.9384H50.6049C49.2331 14.9384 48.4161 15.7741 48.4161 16.9183C48.4161 18.09 49.1885 18.7619 50.3965 18.7619H51.8585C52.2215 18.7619 52.4848 18.9978 52.4848 19.3799C52.4848 19.7698 52.2215 20.0243 51.8585 20.0243ZM33.1042 16.2371C33.6491 16.2371 33.9399 16.5912 33.9399 17.0277C33.9399 17.4632 33.6491 17.808 33.1042 17.808H31.315V16.2371H33.1042ZM27.4277 17.0723C27.4277 17.5 27.1555 17.8536 26.6195 17.8536H24.794V16.292H26.6195C27.1555 16.292 27.4277 16.6368 27.4277 17.0723Z" fill="#889099"/>
<path fill-rule="evenodd" clip-rule="evenodd" d="M7.47462 8.62504H5.75804L5.21315 7.26257H2.18904L1.65297 8.62504H0.0271301L2.75207 2.26733H4.759L7.47462 8.62504ZM9.27261 2.56749L9.30939 4.28407V8.62504H7.82873V2.26733H10.5081L11.7249 6.77212L12.9328 2.26733H15.621V8.62504H14.1408V4.27475L14.1771 2.60378L12.4154 8.62504H11.0348L9.27261 2.56749ZM21.9606 3.55722V2.26733H16.8746V8.62504H21.9606V7.32633H18.4004V6.06391H21.8787V4.79266H18.4004V3.55722H21.9606ZM25.3206 6.3366H24.6031V8.62504H23.0773V2.26733H26.5286C27.8818 2.26733 28.7268 3.09423 28.7268 4.28407C28.7268 5.30077 28.0819 6.08206 27.0009 6.28167L29.1172 8.62504H27.2192L25.3206 6.3366ZM31.1241 8.62504H29.5983V5.79073V2.26733H31.1241V5.82702V8.62504ZM35.0203 8.62504H35.1022L35.7285 7.27189H35.2655C34.2208 7.27189 33.6034 6.61812 33.6034 5.49205V5.40131C33.6034 4.39295 34.1571 3.63912 35.2474 3.63912H36.9002V2.26733H35.1203C33.1585 2.26733 32.0869 3.58468 32.0869 5.39199V5.50087C32.0869 7.39009 33.186 8.61621 35.0203 8.62504ZM43.3932 8.62504H41.6772L41.1323 7.26257H38.1082L37.5721 8.62504H35.9467L38.6707 2.26733H40.6786L43.3932 8.62504ZM45.2373 4.81964L45.2192 4.29289L45.537 4.81964L47.9706 8.62504H49.7514V2.26733H48.2619V5.94571L48.2801 6.41802L47.9986 5.94571L45.6184 2.26733H43.7483V8.62504H45.2373V4.81964ZM39.1528 4.63817L39.6158 3.44834L40.0783 4.63817L40.6423 6.04576H38.5986L39.1528 4.63817ZM26.3923 3.56654C26.9372 3.56654 27.228 3.92064 27.228 4.35665C27.228 4.79266 26.9372 5.13745 26.3923 5.13745H24.6031V3.56654H26.3923ZM3.2332 4.63817L3.69668 3.44834L4.15967 4.63817L4.7227 6.04576H2.67949L3.2332 4.63817Z" fill="#889099"/>
</svg>
