<svg xmlns="http://www.w3.org/2000/svg" width="49.85" height="50" viewBox="0 0 49.85 50">
  <defs>
    <style>
      .cls-1 {
        fill: #0674ec;
        fill-rule: evenodd;
      }
    </style>
  </defs>
  <path id="Forma_1" data-name="Forma 1" class="cls-1" d="M1192.91,2043.99l-0.59.59a0.834,0.834,0,0,0,1.18,1.18l0.58-.59a0.827,0.827,0,0,0,0-1.18A0.815,0.815,0,0,0,1192.91,2043.99Zm10.86-4.66a0.837,0.837,0,0,0-.83.84,0.828,0.828,0,0,0,.83.83h1.52a0.834,0.834,0,0,0,.83-0.83,0.843,0.843,0,0,0-.83-0.84h-1.52Zm4.54,0a0.837,0.837,0,0,0-.83.84,0.828,0.828,0,0,0,.83.83h1.51a0.828,0.828,0,0,0,.83-0.83,0.837,0.837,0,0,0-.83-0.84h-1.51Zm-9.07,0a0.837,0.837,0,0,0-.83.84,0.828,0.828,0,0,0,.83.83h1.51a0.828,0.828,0,0,0,.83-0.83,0.837,0.837,0,0,0-.83-0.84h-1.51Zm-1.95,1.44a0.815,0.815,0,0,0-1.17,0l-1.07,1.07a0.831,0.831,0,1,0,1.17,1.18l1.07-1.07A0.827,0.827,0,0,0,1197.29,2040.77Zm15.56-1.44a0.837,0.837,0,0,0-.83.84,0.828,0.828,0,0,0,.83.83h0.83a0.828,0.828,0,0,0,.83-0.83,0.837,0.837,0,0,0-.83-0.84h-0.83Zm-19.94,1.47a0.81,0.81,0,0,0,.59-0.25l3.22-3.23a1.158,1.158,0,0,1,.29-0.22l0.16-.09a0.726,0.726,0,0,1,.09-0.05l0.31-.09a1.648,1.648,0,0,1,.32-0.04h12.46a0.83,0.83,0,1,0,0-1.66h-12.46a3.657,3.657,0,0,0-.65.06,1.546,1.546,0,0,0-.23.07l-0.11.03a1.708,1.708,0,0,0-.27.09,2.591,2.591,0,0,0-.29.14l-0.08.05a1.125,1.125,0,0,0-.21.12,3.346,3.346,0,0,0-.51.42l-3.22,3.23a0.833,0.833,0,0,0,0,1.17A0.81,0.81,0,0,0,1192.91,2040.8Zm47.59-4.21a0.794,0.794,0,0,0,.59-0.25l0.59-.58a0.845,0.845,0,0,0,0-1.18,0.827,0.827,0,0,0-1.18,0l-0.58.59a0.815,0.815,0,0,0,0,1.17A0.788,0.788,0,0,0,1240.5,2036.59Zm-3.09,1.09-1.26,1.26a0.834,0.834,0,0,0,1.18,1.18l1.25-1.26A0.831,0.831,0,0,0,1237.41,2037.68Zm-11.05,1.65a0.837,0.837,0,0,0-.83.84,0.828,0.828,0,0,0,.83.83h1.78a0.834,0.834,0,0,0,.83-0.83,0.843,0.843,0,0,0-.83-0.84h-1.78Zm5.32,0a0.837,0.837,0,0,0-.83.84,0.828,0.828,0,0,0,.83.83h1.78a0.828,0.828,0,0,0,.83-0.83,0.837,0.837,0,0,0-.83-0.84h-1.78Zm-9.7,0a0.843,0.843,0,0,0-.83.84,0.834,0.834,0,0,0,.83.83h0.83a0.837,0.837,0,0,0,.84-0.83,0.845,0.845,0,0,0-.84-0.84h-0.83Zm18.52,0.45-3.22,3.23a1,1,0,0,1-.29.22l-0.15.09a0.467,0.467,0,0,1-.1.05c-0.03.01-.05,0.02-0.08,0.03l-0.23.07a1.816,1.816,0,0,1-.32.03h-37.48l-1.26,1.02a0.837,0.837,0,0,0-.12,1.17,0.826,0.826,0,0,0,1.16.13l0.81-.65h36.89a3.482,3.482,0,0,0,.64-0.07,1.824,1.824,0,0,0,.25-0.07l0.1-.03a1.309,1.309,0,0,0,.28-0.09,2.437,2.437,0,0,0,.28-0.14l0.08-.05a2.116,2.116,0,0,0,.21-0.11,5.173,5.173,0,0,0,.51-0.42l3.22-3.23a0.845,0.845,0,0,0,0-1.18A0.827,0.827,0,0,0,1240.5,2039.78Zm-16.02-3.78a0.828,0.828,0,0,0,.83.83h10.11l2.73-2.74a0.827,0.827,0,0,0,0-1.18,0.815,0.815,0,0,0-1.17,0l-2.25,2.26h-9.42A0.828,0.828,0,0,0,1224.48,2036Zm-6.5,5.63,12.74-18.46c4.78-6.4,4.09-16.9-1.48-22.49a15.9,15.9,0,0,0-22.53,0c-5.56,5.59-6.26,16.09-1.49,22.46Zm0.14-35.63a5.835,5.835,0,1,1-5.81,5.83A5.834,5.834,0,0,1,1218.12,2006Z" transform="translate(-1192.09 -1996)"/>
</svg>
